<!DOCTYPE svg PUBLIC "-//W3C//DTD SVG 1.1//EN" "http://www.w3.org/Graphics/SVG/1.1/DTD/svg11.dtd">
<!-- Uploaded to: SVG Repo, www.svgrepo.com, Transformed by: SVG Repo Mixer Tools -->
<svg height="125px" width="125px" version="1.1" id="Layer_1" xmlns="http://www.w3.org/2000/svg" xmlns:xlink="http://www.w3.org/1999/xlink" viewBox="0 0 496.158 496.158" xml:space="preserve" fill="#000000">
<g id="SVGRepo_bgCarrier" stroke-width="0"/>
<g id="SVGRepo_tracerCarrier" stroke-linecap="round" stroke-linejoin="round"/>
<g id="SVGRepo_iconCarrier"> <path style="fill:#000000;" d="M496.158,248.085c0-137.022-111.069-248.082-248.075-248.082C111.07,0.003,0,111.063,0,248.085 c0,137.001,111.07,248.07,248.083,248.07C385.089,496.155,496.158,385.086,496.158,248.085z"/> <path style="fill:#1fa2fa;" d="M157.635,320.866h-51.61c-4.142,0-7.5,3.358-7.5,7.5v25.426c0,4.142,3.358,7.5,7.5,7.5h51.61 c4.143,0,7.5-3.358,7.5-7.5v-25.426C165.135,324.225,161.777,320.866,157.635,320.866z"/> <path style="fill:#5cb4f7;" d="M157.635,274.366h-51.61c-4.142,0-7.5,3.358-7.5,7.5v25.426c0,4.142,3.358,7.5,7.5,7.5h51.61 c4.143,0,7.5-3.358,7.5-7.5v-25.426C165.135,277.725,161.777,274.366,157.635,274.366z"/> <path style="fill:#9b7ff5;" d="M157.635,227.866h-51.61c-4.142,0-7.5,3.358-7.5,7.5v25.426c0,4.142,3.358,7.5,7.5,7.5h51.61 c4.143,0,7.5-3.358,7.5-7.5v-25.426C165.135,231.225,161.777,227.866,157.635,227.866z"/> <path style="fill:#1fa2fa;" d="M235.135,320.866h-51.61c-4.142,0-7.5,3.358-7.5,7.5v25.426c0,4.142,3.358,7.5,7.5,7.5h51.61 c4.143,0,7.5-3.358,7.5-7.5v-25.426C242.635,324.225,239.277,320.866,235.135,320.866z"/> <path style="fill:#5cb4f7;" d="M235.135,274.366h-51.61c-4.142,0-7.5,3.358-7.5,7.5v25.426c0,4.142,3.358,7.5,7.5,7.5h51.61 c4.143,0,7.5-3.358,7.5-7.5v-25.426C242.635,277.725,239.277,274.366,235.135,274.366z"/> <path style="fill:#9b7ff5;" d="M235.135,227.866h-51.61c-4.142,0-7.5,3.358-7.5,7.5v25.426c0,4.142,3.358,7.5,7.5,7.5h51.61 c4.143,0,7.5-3.358,7.5-7.5v-25.426C242.635,231.225,239.277,227.866,235.135,227.866z"/> <path style="fill:#d76af3;" d="M235.135,181.366h-51.61c-4.142,0-7.5,3.358-7.5,7.5v25.426c0,4.142,3.358,7.5,7.5,7.5h51.61 c4.143,0,7.5-3.358,7.5-7.5v-25.426C242.635,184.725,239.277,181.366,235.135,181.366z"/> <path style="fill:#ff62ea;" d="M235.135,134.866h-51.61c-4.142,0-7.5,3.358-7.5,7.5v25.426c0,4.142,3.358,7.5,7.5,7.5h51.61 c4.143,0,7.5-3.358,7.5-7.5v-25.426C242.635,138.225,239.277,134.866,235.135,134.866z"/> <path style="fill:#1fa2fa;" d="M312.635,320.866h-51.61c-4.142,0-7.5,3.358-7.5,7.5v25.426c0,4.142,3.358,7.5,7.5,7.5h51.61 c4.143,0,7.5-3.358,7.5-7.5v-25.426C320.135,324.225,316.777,320.866,312.635,320.866z"/> <path style="fill:#5cb4f7;" d="M312.635,274.366h-51.61c-4.142,0-7.5,3.358-7.5,7.5v25.426c0,4.142,3.358,7.5,7.5,7.5h51.61 c4.143,0,7.5-3.358,7.5-7.5v-25.426C320.135,277.725,316.777,274.366,312.635,274.366z"/> <path style="fill:#1fa2fa;" d="M390.135,320.866h-51.61c-4.142,0-7.5,3.358-7.5,7.5v25.426c0,4.142,3.358,7.5,7.5,7.5h51.61 c4.143,0,7.5-3.358,7.5-7.5v-25.426C397.635,324.225,394.277,320.866,390.135,320.866z"/> <path style="fill:#5cb4f7;" d="M390.135,274.366h-51.61c-4.142,0-7.5,3.358-7.5,7.5v25.426c0,4.142,3.358,7.5,7.5,7.5h51.61 c4.143,0,7.5-3.358,7.5-7.5v-25.426C397.635,277.725,394.277,274.366,390.135,274.366z"/> <path style="fill:#9b7ff5;" d="M390.135,227.866h-51.61c-4.142,0-7.5,3.358-7.5,7.5v25.426c0,4.142,3.358,7.5,7.5,7.5h51.61 c4.143,0,7.5-3.358,7.5-7.5v-25.426C397.635,231.225,394.277,227.866,390.135,227.866z"/> <path style="fill:#d76af3;" d="M390.135,181.366h-51.61c-4.142,0-7.5,3.358-7.5,7.5v25.426c0,4.142,3.358,7.5,7.5,7.5h51.61 c4.143,0,7.5-3.358,7.5-7.5v-25.426C397.635,184.725,394.277,181.366,390.135,181.366z"/> </g>
</svg>